<?xml version="1.0" encoding="UTF-8"?>
<!DOCTYPE svg PUBLIC "-//W3C//DTD SVG 1.1//EN" "http://www.w3.org/Graphics/SVG/1.1/DTD/svg11.dtd">
<!-- Creator: CorelDRAW 2020 (64-Bit) -->
<svg xmlns="http://www.w3.org/2000/svg" xml:space="preserve" width="6.11522in" height="2in" version="1.1" style="shape-rendering:geometricPrecision; text-rendering:geometricPrecision; image-rendering:optimizeQuality; fill-rule:evenodd; clip-rule:evenodd"
viewBox="0 0 4555.03 1489.73"
 xmlns:xlink="http://www.w3.org/1999/xlink"
 xmlns:xodm="http://www.corel.com/coreldraw/odm/2003">
 <defs>
  <style type="text/css">
   <![CDATA[
    .fil0 {fill:#373435;fill-rule:nonzero}
   ]]>
  </style>
 </defs>
 <g id="Layer_x0020_1">
  <metadata id="CorelCorpID_0Corel-Layer"/>
  <g id="_2132279045152">
   <path class="fil0" d="M436.47 715.2l-436.47 0 1053.01 -695.9 0 309.49 -616.54 386.41zm616.54 697.12l-1053.01 -697.12 436.47 0 616.54 384.58 0 312.54z"/>
   <path class="fil0" d="M1510.15 1277.55c-60.9,0 -114.77,-8.12 -161.87,-24.09 -47.1,-16.24 -86.62,-41.68 -118.83,-76.6 -32.48,-34.92 -55.49,-79.85 -69.02,-134.8l0 0 107.73 -40.6 0 0c16.51,59.28 45.47,102.59 87.16,129.66 41.96,27.34 93.38,40.87 154.83,40.87 76.6,0 135.34,-16.51 175.94,-49.81 40.6,-33.29 61.17,-81.74 61.17,-145.08l0 -34.11c0,-40.87 -10.01,-74.16 -30.32,-100.42 -20.03,-26.26 -45.47,-46.83 -76.33,-61.99 -31.13,-14.89 -71.73,-30.59 -121.81,-47.1 -1.62,-0.54 -3.25,-1.09 -4.87,-1.62 -1.62,-0.54 -2.98,-1.08 -4.6,-1.62l-20.57 -7.04c-65.78,-20.03 -118.29,-39.52 -157.81,-58.74 -39.79,-18.95 -73.35,-47.1 -101.23,-84.45 -27.88,-37.08 -41.69,-86.89 -41.69,-148.6l0 -28.69c0,-65.5 13.26,-120.45 39.79,-165.11 26.26,-44.66 65.23,-78.77 116.39,-102.05 51.43,-23.28 113.96,-34.92 188.12,-34.92 57.66,0 106.92,8.12 148.33,23.82 41.14,15.97 75.25,40.33 102.05,73.35 27.07,33.02 47.64,75.79 61.99,128.03l0 0 -106.38 39.79 0 0c-17.32,-55.49 -42.77,-96.09 -76.06,-121.26 -33.29,-25.44 -76.6,-38.16 -129.93,-38.16 -75.25,0 -132.63,16.51 -172.15,49.53 -39.79,33.02 -59.55,80.39 -59.55,142.38l0 28.42c0,40.87 11.37,73.9 33.84,99.34 22.47,25.17 50.35,45.2 83.64,59.28 33.29,14.35 78.23,30.32 134.8,47.64 2.71,0.54 4.87,1.09 6.77,1.62 1.89,0.54 3.52,1.35 5.14,2.44 2.71,0.54 5.14,1.35 7.85,2.44 2.71,0.81 5.14,1.62 7.04,2.16 57.66,18.13 106.11,37.62 144.81,58.74 38.98,21.11 71.19,51.16 96.9,89.6 25.44,38.71 38.44,87.97 38.44,148.33l0 37.35c0,65.5 -13.53,120.72 -40.06,165.66 -26.8,44.93 -66.05,79.04 -118.29,102.05 -51.97,22.74 -115.85,34.38 -191.37,34.38zm1084.07 -1165l113.96 0 0 1153.09 -113.96 0 0 -1153.09zm-560.03 0l114.23 0 0 1153.09 -114.23 0 0 -1153.09zm88.78 529.72l521.06 0 0 108.81 -521.06 0 0 -108.81z"/>
   <polygon class="fil0" points="2959.7,1489.73 2756.01,1489.73 3264.97,0 3468.66,0 "/>
   <path class="fil0" d="M4118.56 763.59l436.47 0 -1053.01 695.9 0 -309.49 616.54 -386.41zm-616.54 -697.12l1053.01 697.12 -436.47 0 -616.54 -384.58 0 -312.54z"/>
  </g>
 </g>
</svg>
